<svg width="30" height="30" viewBox="0 0 30 30" fill="none" xmlns="http://www.w3.org/2000/svg">
<path fill-rule="evenodd" clip-rule="evenodd" d="M15 2.5C8.1 2.5 2.5 8.1 2.5 15C2.5 20.5 6.1 25.2 11.1 26.9C11.2 26.9 11.3 26.7 11.3 26.6V24.2C7.9 24.9 7.2 22.7 7.2 22.7C6.6 21.3 5.8 20.9 5.8 20.9C4.7 20.2 5.9 20.2 5.9 20.2C7.1 20.3 7.7 21.4 7.7 21.4C8.8 23.1 10.3 22.6 10.8 22.3C10.9 21.5 11.3 20.9 11.7 20.6C8.9 20.3 6 19.1 6 14C6 12.5 6.5 11.3 7.3 10.4C7.2 10.1 6.7 8.6 7.4 6.7C7.4 6.7 8.5 6.4 10.8 7.9C11.7 7.6 12.7 7.5 13.7 7.5C14.7 7.5 15.7 7.6 16.6 7.9C18.9 6.4 20 6.7 20 6.7C20.7 8.6 20.2 10.1 20.1 10.4C20.9 11.3 21.4 12.5 21.4 14C21.4 19.1 18.5 20.3 15.7 20.6C16.2 21 16.6 21.8 16.6 23V26.6C16.6 26.7 16.7 26.9 16.9 26.9C21.9 25.2 25.5 20.5 25.5 15C25.5 8.1 21 2.5 15 2.5Z" fill="black"/>
</svg>
