<svg width="69" height="69" viewBox="0 0 69 69" fill="none" xmlns="http://www.w3.org/2000/svg">
<circle cx="34.5" cy="34.5" r="34.5" fill="#FE4300"/>
<path d="M34.5 49.64C31.4267 49.64 28.6933 49 26.3 47.72C23.9333 46.4133 22.08 44.6 20.74 42.28C19.4 39.9333 18.73 37.2533 18.73 34.24C18.73 31.2 19.4 28.52 20.74 26.2C22.08 23.8533 23.9333 22.04 26.3 20.76C28.6933 19.4533 31.4267 18.8 34.5 18.8C37.5733 18.8 40.2933 19.4533 42.66 20.76C45.0533 22.04 46.92 23.8533 48.26 26.2C49.6 28.52 50.27 31.2 50.27 34.24C50.27 37.2533 49.6 39.9333 48.26 42.28C46.92 44.6 45.0533 46.4133 42.66 47.72C40.2933 49 37.5733 49.64 34.5 49.64ZM34.5 43.6C36.3133 43.6 37.8867 43.2 39.22 42.4C40.5533 41.5733 41.58 40.4267 42.3 38.96C43.0467 37.4667 43.42 35.96 43.42 34.24C43.42 32.4933 43.0467 30.9867 42.3 29.52C41.58 28.0267 40.5533 26.88 39.22 26.08C37.8867 25.2533 36.3133 24.84 34.5 24.84C32.6867 24.84 31.1133 25.2533 29.78 26.08C28.4467 26.88 27.4067 28.0267 26.66 29.52C25.94 30.9867 25.58 32.4933 25.58 34.24C25.58 35.96 25.94 37.4667 26.66 38.96C27.4067 40.4267 28.4467 41.5733 29.78 42.4C31.1133 43.2 32.6867 43.6 34.5 43.6Z" fill="white"/>
</svg>
