<svg width="70" height="70" viewBox="0 0 70 70" fill="none" xmlns="http://www.w3.org/2000/svg">
<path d="M12 6L17.2 64L35 69L52.8 64L58 6H12Z" fill="#1572B6"/>
<path d="M35 64.5L49.8 60.4L54.2 11.5H35V64.5Z" fill="#33A9DC"/>
<path d="M35 33.7H43.5L44.1 27.6H35V21.8H50.3L50.1 23.4L48.6 39.5H35V33.7Z" fill="white"/>
<path d="M35.1 51.9L35 51.9L28.6 50.1L28.2 45.5H22.4L23.1 53.9L35 57.2L35.1 57.1V51.9Z" fill="white"/>
<path d="M40.6 39.5L40 45.9L35 47.2V47.2V53.4V53.4L35.1 53.4L46.9 50.1L47 49L48.4 39.5H40.6Z" fill="#EBEBEB"/>
<path d="M35 21.8V27.6H21L20.4 21.8H35Z" fill="#EBEBEB"/>
<path d="M35 33.7V39.5H28.3L27.7 33.7H35Z" fill="#EBEBEB"/>
<path d="M35 47.2V53.4L29.6 51.9L29.2 47.7L24.5 47.7L25.2 53.9L34.9 56.6L35 56.6V47.2Z" fill="#EBEBEB"/>
</svg>
