<svg width="70" height="70" viewBox="0 0 70 70" fill="none" xmlns="http://www.w3.org/2000/svg">
<path d="M61 31.8L38.2 9C36.7 7.5 34.3 7.5 32.8 9L28 13.8L34.1 19.9C35.7 19.4 37.5 19.8 38.7 21C40 22.3 40.4 24.2 39.8 25.8L45.7 31.7C47.3 31.1 49.2 31.5 50.5 32.8C52.3 34.6 52.3 37.5 50.5 39.3C48.7 41.1 45.8 41.1 44 39.3C42.7 38 42.3 36 43 34.4L37.5 28.9V43.2C37.9 43.4 38.3 43.7 38.7 44C40.5 45.8 40.5 48.7 38.7 50.5C36.9 52.3 34 52.3 32.2 50.5C30.4 48.7 30.4 45.8 32.2 44C32.6 43.6 33.1 43.3 33.6 43.1V28.7C33.1 28.5 32.6 28.2 32.2 27.8C30.9 26.5 30.5 24.6 31.1 23L25.1 17C24.4 17.7 14.3 27.8 9.5 32.6C8 34.1 8 36.5 9.5 38L32.3 60.8C33.8 62.3 36.2 62.3 37.7 60.8L60.9 37.6C62.5 36.1 62.5 33.3 61 31.8Z" fill="#F05133"/>
</svg>
