<svg width="70" height="70" viewBox="0 0 70 70" fill="none" xmlns="http://www.w3.org/2000/svg">
<path fill-rule="evenodd" clip-rule="evenodd" d="M35 6C18.9 6 6 18.9 6 35C6 47.9 14.3 58.8 25.9 62.7C26.1 62.7 26.3 62.4 26.3 62.2V56.5C18.4 58.2 16.7 52.6 16.7 52.6C15.4 49.3 13.5 48.4 13.5 48.4C10.9 46.6 13.7 46.6 13.7 46.6C16.6 46.8 18.1 49.6 18.1 49.6C20.6 53.9 24.6 52.7 26.2 52C26.5 50.1 27.3 48.8 28.2 48.1C21.2 47.3 13.9 44.6 13.9 32.6C13.9 29.1 15.1 26.3 17.1 24.1C16.8 23.4 15.7 20.1 17.4 15.7C17.4 15.7 20 14.9 26.2 19.2C28.8 18.5 31.5 18.1 34.2 18.1C36.9 18.1 39.6 18.5 42.2 19.2C48.4 14.9 51 15.7 51 15.7C52.7 20.1 51.6 23.4 51.3 24.1C53.3 26.3 54.5 29.1 54.5 32.6C54.5 44.6 47.2 47.3 40.2 48.1C41.3 49 42.3 50.8 42.3 53.6V62.2C42.3 62.5 42.5 62.8 42.9 62.7C54.4 58.8 62.7 47.9 62.7 35C63 18.9 50.1 6 35 6Z" fill="#181717"/>
</svg>
