<svg width="70" height="70" viewBox="0 0 70 70" fill="none" xmlns="http://www.w3.org/2000/svg">
<path d="M12 6L17.2 64L35 69L52.8 64L58 6H12Z" fill="#E44D26"/>
<path d="M35 64.5L49.8 60.4L54.2 11.5H35V64.5Z" fill="#F16529"/>
<path d="M35 33.5H27.6L27.1 27.6H35V21.8H20.4L20.5 23.4L22 39.3H35V33.5Z" fill="white"/>
<path d="M35 51.8L34.9 51.8L28.6 50.1L28.2 45.5H22.4L23.1 53.9L34.9 57.2L35 57.1V51.8Z" fill="white"/>
<path d="M42.1 39.3L41.4 47.6L35 49.4V49.4V57.1L46.8 53.8L46.9 53L48.3 39.3H42.1Z" fill="#EBEBEB"/>
<path d="M35 21.8V27.6H49.1L48.9 29.6L48.3 33.5H35V39.3H45.2L42.1 47.6L35 49.4V49.4V57.1L46.8 53.8L46.9 53L49.6 30L49.9 27.6L50.5 21.8H35Z" fill="white"/>
</svg>
