<svg width="70" height="70" viewBox="0 0 70 70" fill="none" xmlns="http://www.w3.org/2000/svg">
<rect width="70" height="70" rx="8" fill="#F7DF1E"/>
<path d="M19 51.5L23.4 48.9C24.3 50.5 25.1 51.8 27 51.8C28.9 51.8 30 51 30 48.2V31.5H35.5V48.3C35.5 53.9 32.2 56.5 27.4 56.5C23 56.5 20.5 54.2 19 51.5Z" fill="black"/>
<path d="M38.5 50.9L42.9 48.3C44.1 50.3 45.7 51.7 48.4 51.7C50.7 51.7 52.1 50.6 52.1 49C52.1 47.1 50.6 46.4 48.1 45.3L46.8 44.7C42.9 43.1 40.3 41 40.3 36.6C40.3 32.5 43.4 29.4 48.3 29.4C51.7 29.4 54.1 30.6 55.8 33.6L51.6 36.3C50.7 34.7 49.7 34 48.3 34C46.8 34 45.9 35 45.9 36.3C45.9 38 47 38.6 49.3 39.6L50.6 40.2C55.2 42.2 57.8 44.2 57.8 48.7C57.8 53.6 53.9 56.3 48.6 56.3C43.5 56.3 40.2 53.9 38.5 50.9Z" fill="black"/>
</svg>
