<svg width="70" height="70" viewBox="0 0 70 70" fill="none" xmlns="http://www.w3.org/2000/svg">
<ellipse cx="35" cy="35" rx="32" ry="19" fill="#777BB4"/>
<path d="M21.5 41H17.8L20 29.5H24.6C27.6 29.5 29 31 28.6 33.4C28.2 36.1 26.2 37.5 23.4 37.5H21.2L20.7 41H21.5ZM21.6 35.2H23.2C24.5 35.2 25.4 34.6 25.6 33.4C25.8 32.2 25.2 31.7 23.9 31.7H22.4L21.6 35.2Z" fill="white"/>
<path d="M32.5 41L33.8 34.4C34.1 33 33.8 32 32.4 32H30.8L29.3 41H26.5L28.7 29.5H31.5L31.2 31H32.7C35.4 31 36.5 32.3 36 34.6L34.7 41H32.5Z" fill="white"/>
<path d="M40.5 41H36.8L39 29.5H43.6C46.6 29.5 48 31 47.6 33.4C47.2 36.1 45.2 37.5 42.4 37.5H40.2L39.7 41H40.5ZM40.6 35.2H42.2C43.5 35.2 44.4 34.6 44.6 33.4C44.8 32.2 44.2 31.7 42.9 31.7H41.4L40.6 35.2Z" fill="white"/>
</svg>
