<svg width="70" height="70" viewBox="0 0 70 70" fill="none" xmlns="http://www.w3.org/2000/svg">
<path d="M34.7 6C20.5 6 21.4 12.1 21.4 12.1L21.4 18.4H35V20.3H16.3C16.3 20.3 6 19.1 6 33.5C6 47.9 15.1 47.4 15.1 47.4H20.4V40.8C20.4 40.8 20.1 31.7 29.4 31.7H42.5C42.5 31.7 51.2 31.8 51.2 23.3V14.5C51.2 14.5 52.5 6 34.7 6ZM29 10.6C30.6 10.6 31.9 11.9 31.9 13.5C31.9 15.1 30.6 16.4 29 16.4C27.4 16.4 26.1 15.1 26.1 13.5C26.1 11.9 27.4 10.6 29 10.6Z" fill="#387EB8"/>
<path d="M35.3 64C49.5 64 48.6 57.9 48.6 57.9L48.6 51.6H35V49.7H53.7C53.7 49.7 64 50.9 64 36.5C64 22.1 54.9 22.6 54.9 22.6H49.6V29.2C49.6 29.2 49.9 38.3 40.6 38.3H27.5C27.5 38.3 18.8 38.2 18.8 46.7V55.5C18.8 55.5 17.5 64 35.3 64ZM41 59.4C39.4 59.4 38.1 58.1 38.1 56.5C38.1 54.9 39.4 53.6 41 53.6C42.6 53.6 43.9 54.9 43.9 56.5C43.9 58.1 42.6 59.4 41 59.4Z" fill="#FFE052"/>
</svg>
